# xmcd
#
# Track frame offsets:
#	150
#	14395
#	25200
#	39975
#	53997
#	65455
#	76730
#	92154
#	107010
#	120525
#	136065
#	154627
#	172577
#	185952
#	196482
#	212672
#	226580
#	243077
#	254250
#	273047
#
# Disc length: 3829 seconds
#
# Revision: 0
# Processed by: cddbd v1.5.2PL0 Copyright (c) Steve Scherf et al.
# Submitted via: EasyCDDAExtractor 11.1.0.1
#
DISCID=f70ef314
DTITLE=Various Artist - Nashville music express 11
DYEAR=1900
DGENRE=country
TTITLE0=A.W.Patetterson - Ain't no ugly people after 2 A.M.
TTITLE1=Ralph Eads - Baby don't worry
TTITLE2=Ed Roderick and  The Country Lovin' Band - Coountry on the rise
TTITLE3=John Smith - Goin' up in smoke
TTITLE4=Scooter Lee - Heartbreak hotel
TTITLE5=Billy Joe Burnette - Huggin' my lady
TTITLE6=Steve Bart - My sensitive side
TTITLE7=David Bolles - One of us is lying
TTITLE8=Lanier - Orange blossom special
TTITLE9=A.W.Patetterson - Play a country song backwards
TTITLE10=Jennifer Raynor - Rodeo queen
TTITLE11=The George Brothers - She will
TTITLE12=Kathy Peretta - Since I fell for you
TTITLE13=Alan McGione - Spldier of country
TTITLE14=Jennifer Raynor - Take me flyin'
TTITLE15=Buddy Shaw - Think I'll go somewhere and cry myself to sleep
TTITLE16=Johnny Duncan - Thinkin' of a rendezvous
TTITLE17=Shirley Hardin - Walking after midnight
TTITLE18=Don Johnson - Wild woods man
TTITLE19=Cheryl K Warner - If you ain't shootin' from the heart
EXTD=
EXTT0=
EXTT1=
EXTT2=
EXTT3=
EXTT4=
EXTT5=
EXTT6=
EXTT7=
EXTT8=
EXTT9=
EXTT10=
EXTT11=
EXTT12=
EXTT13=
EXTT14=
EXTT15=
EXTT16=
EXTT17=
EXTT18=
EXTT19=
PLAYORDER=
